{
	"asset":{
		"generator":"Khronos glTF Blender I/O v5.2.40",
		"version":"2.0"
	},
	"extensionsUsed":[
		"KHR_materials_unlit"
	],
	"scene":0,
	"scenes":[
		{
			"name":"Scene",
			"nodes":[
				36
			]
		}
	],
	"nodes":[
		{
			"name":"coffinIKtarget",
			"rotation":[
				-1.916585823380501e-08,
				-1.2516975402832031e-06,
				5.749781450958835e-08,
				1
			],
			"translation":[
				0.08570732921361923,
				0.30472296476364136,
				-0.1079532578587532
			]
		},
		{
			"name":"footIKtarget.L",
			"rotation":[
				0.14893360435962677,
				-9.562705827192985e-08,
				-2.525698903355078e-07,
				0.9888471961021423
			],
			"translation":[
				1.5624725335783296e-07,
				0.3169936537742615,
				0.2663305699825287
			]
		},
		{
			"children":[
				1
			],
			"name":"footIK.L",
			"rotation":[
				5.8906657329771406e-08,
				0.9887478351593018,
				0.14959204196929932,
				8.997238296615251e-07
			],
			"scale":[
				1,
				0.9999998807907104,
				0.9999999403953552
			],
			"translation":[
				0.07235610485076904,
				-0.016446828842163086,
				-0.03957776352763176
			]
		},
		{
			"name":"footIKtarget.R",
			"rotation":[
				0.14893360435962677,
				1.4013257043643534e-07,
				2.5401755010534544e-07,
				0.9888471961021423
			],
			"translation":[
				-1.4215332555522764e-07,
				0.3169936537742615,
				0.2663305699825287
			]
		},
		{
			"children":[
				3
			],
			"name":"footIK.R",
			"rotation":[
				1.776742521997221e-07,
				-0.9887478351593018,
				-0.14959204196929932,
				6.639879757130984e-07
			],
			"scale":[
				1,
				0.9999998807907104,
				0.9999999403953552
			],
			"translation":[
				-0.0723559707403183,
				-0.016446828842163086,
				-0.03957779332995415
			]
		},
		{
			"name":"handIKtarget.L",
			"rotation":[
				-0.7071067690849304,
				-1.050295637128329e-07,
				1.2222449186083395e-07,
				0.7071067690849304
			],
			"translation":[
				-1.3289951361628027e-08,
				-0.19204536080360413,
				-0.3099041283130646
			]
		},
		{
			"children":[
				5
			],
			"name":"handIK.L",
			"rotation":[
				-0.4999999403953552,
				-0.5000001192092896,
				-0.5000001192092896,
				0.49999988079071045
			],
			"scale":[
				1,
				0.9999999403953552,
				1
			],
			"translation":[
				0.45361658930778503,
				-0.04282659292221069,
				-0.7569148540496826
			]
		},
		{
			"name":"handIKtarget.R",
			"rotation":[
				-0.7071067690849304,
				5.7601148739649943e-08,
				-1.4189485852966754e-07,
				0.7071067690849304
			],
			"translation":[
				-2.3111589086965978e-08,
				-0.19204549491405487,
				-0.3099040985107422
			]
		},
		{
			"children":[
				7
			],
			"name":"handIK.R",
			"rotation":[
				-0.5,
				0.5000000596046448,
				0.5,
				0.5
			],
			"scale":[
				1,
				0.9999999403953552,
				1
			],
			"translation":[
				-0.4536161720752716,
				-0.042826712131500244,
				-0.7569150328636169
			]
		},
		{
			"children":[
				0,
				2,
				4,
				6,
				8
			],
			"name":"base",
			"rotation":[
				0.70710688829422,
				6.181723932741079e-08,
				-0.7071066498756409,
				1.507288522782039e-14
			],
			"scale":[
				1,
				0.9999998807907104,
				1
			],
			"translation":[
				-1.4210861491465582e-14,
				-2.384185791015625e-07,
				9.903034880846817e-16
			]
		},
		{
			"name":"coffinIK",
			"rotation":[
				0.707083523273468,
				3.340411751651118e-07,
				-0.00404268829151988,
				0.7071184515953064
			],
			"scale":[
				1,
				0.9999998807907104,
				0.9999998807907104
			],
			"translation":[
				-0.0017994658555835485,
				-1.0302229384251405e-05,
				-0.31472182273864746
			]
		},
		{
			"children":[
				10
			],
			"name":"coffinIK_control",
			"rotation":[
				0.7091126441955566,
				0.7050720453262329,
				-0.004053531214594841,
				0.00403043394908309
			],
			"scale":[
				1.0000001192092896,
				1.0000003576278687,
				1
			],
			"translation":[
				0.10795284807682037,
				0.01915454864501953,
				-0.5929873585700989
			]
		},
		{
			"name":"foot.L",
			"rotation":[
				0.6202237606048584,
				-5.940480605204357e-07,
				-4.5417874616759946e-07,
				0.784424901008606
			],
			"scale":[
				1,
				1,
				1.0000001192092896
			],
			"translation":[
				1.095616664059662e-08,
				0.16659240424633026,
				4.2203457395473265e-10
			]
		},
		{
			"children":[
				12
			],
			"name":"leg2.L",
			"rotation":[
				-0.06476134806871414,
				7.120636951185588e-07,
				-5.0741782331442664e-08,
				0.9979007840156555
			],
			"translation":[
				4.212010296100743e-09,
				0.1814224272966385,
				4.692779498327582e-10
			]
		},
		{
			"children":[
				13
			],
			"name":"leg1.L",
			"rotation":[
				-5.337166726349096e-07,
				-0.031015761196613312,
				-0.999518871307373,
				2.4525636632688474e-08
			],
			"scale":[
				1,
				1.0000001192092896,
				1.000003695487976
			],
			"translation":[
				0.07235603034496307,
				-0.03707906976342201,
				-0.005862147081643343
			]
		},
		{
			"name":"coffin",
			"rotation":[
				1.359471468731499e-07,
				-3.301146591638826e-07,
				0.554096519947052,
				0.8324524164199829
			],
			"scale":[
				1,
				0.9999998807907104,
				1
			],
			"translation":[
				-1.2591165443609498e-08,
				0.2550164759159088,
				-6.641052152644988e-09
			]
		},
		{
			"children":[
				15
			],
			"name":"chain3",
			"rotation":[
				-1.9110576943148772e-07,
				1.980201886908617e-07,
				-0.5516622066497803,
				0.8340676426887512
			],
			"scale":[
				1,
				1.0000001192092896,
				1
			],
			"translation":[
				5.37732303129701e-09,
				0.19437040388584137,
				-5.737668562488807e-09
			]
		},
		{
			"children":[
				16
			],
			"name":"chain2",
			"rotation":[
				-1.2005861549369e-07,
				-9.187230176621597e-08,
				-0.5465264916419983,
				0.8374418020248413
			],
			"translation":[
				-6.89689017008277e-09,
				0.2507161498069763,
				9.434717895828726e-09
			]
		},
		{
			"children":[
				17
			],
			"name":"chain1",
			"rotation":[
				-0.14046086370944977,
				0.6682134866714478,
				0.7149649858474731,
				0.15028832852840424
			],
			"scale":[
				1,
				0.9999998807907104,
				0.9999999403953552
			],
			"translation":[
				0.0444890595972538,
				0.09832803905010223,
				-0.003944325726479292
			]
		},
		{
			"name":"foot.R",
			"rotation":[
				0.6202237606048584,
				5.940480605204357e-07,
				4.5417874616759946e-07,
				0.784424901008606
			],
			"scale":[
				1,
				1,
				1.0000001192092896
			],
			"translation":[
				-1.095616664059662e-08,
				0.16659240424633026,
				4.2205941519490864e-10
			]
		},
		{
			"children":[
				18,
				19
			],
			"name":"leg2.R",
			"rotation":[
				-0.06476134806871414,
				-7.113141577974602e-07,
				2.8570280363737766e-08,
				0.9979007840156555
			],
			"translation":[
				-1.3345326621561071e-08,
				0.1814224272966385,
				5.68810776258033e-10
			]
		},
		{
			"children":[
				20
			],
			"name":"leg1.R",
			"rotation":[
				-8.911724194149429e-07,
				0.031015761196613312,
				0.999518871307373,
				1.343356093030934e-08
			],
			"scale":[
				1,
				1.0000001192092896,
				1.000003695487976
			],
			"translation":[
				-0.07235603034496307,
				-0.03707906976342201,
				-0.0058621992357075214
			]
		},
		{
			"name":"hand.L",
			"rotation":[
				-0.04017137736082077,
				-1.5416787380669213e-15,
				3.0328579647687093e-09,
				0.9991928339004517
			],
			"translation":[
				5.3632501106903874e-08,
				0.1899128407239914,
				2.1608350664337195e-09
			]
		},
		{
			"children":[
				22
			],
			"name":"arm2.L",
			"rotation":[
				0.08208915591239929,
				-2.6636298500193334e-08,
				-5.8725571072670846e-09,
				0.9966249465942383
			],
			"scale":[
				1,
				0.9999998807907104,
				0.9999998807907104
			],
			"translation":[
				2.015742017746902e-10,
				0.1817140430212021,
				2.652278396908514e-11
			]
		},
		{
			"children":[
				23
			],
			"name":"arm1.L",
			"rotation":[
				4.828448254556861e-06,
				0.059330981224775314,
				-0.7046132683753967,
				0.7071067690849304
			],
			"scale":[
				0.9999999403953552,
				1,
				1
			],
			"translation":[
				0.08324307948350906,
				0.1920386701822281,
				-0.016184428706765175
			]
		},
		{
			"name":"hand.R",
			"rotation":[
				-0.040171388536691666,
				5.569488114784676e-15,
				-3.03285618841187e-09,
				0.9991928339004517
			],
			"translation":[
				6.557679199659106e-08,
				0.1899128407239914,
				-2.158792256068409e-09
			]
		},
		{
			"children":[
				25
			],
			"name":"arm2.R",
			"rotation":[
				0.08208916336297989,
				1.9210864010688056e-08,
				6.484168757481257e-09,
				0.9966249465942383
			],
			"scale":[
				1,
				0.9999998807907104,
				0.9999998807907104
			],
			"translation":[
				3.3026537060720784e-10,
				0.18171405792236328,
				-3.2121096893433787e-09
			]
		},
		{
			"children":[
				26
			],
			"name":"arm1.R",
			"rotation":[
				4.65195853394107e-06,
				-0.05933114513754845,
				0.7046132683753967,
				0.7071067690849304
			],
			"scale":[
				1,
				1,
				1.0000001192092896
			],
			"translation":[
				-0.08324307948350906,
				0.1920386701822281,
				-0.016184469684958458
			]
		},
		{
			"name":"cross",
			"rotation":[
				-6.740447133779526e-08,
				-1.0664429409001919e-14,
				-1.6084356069256955e-14,
				1
			],
			"translation":[
				-4.436262557305781e-08,
				0.15167145431041718,
				0.18607036769390106
			]
		},
		{
			"children":[
				28
			],
			"name":"head",
			"rotation":[
				0.06453410536050797,
				1.8078808645982138e-14,
				1.5386129703642837e-08,
				0.9979155659675598
			],
			"scale":[
				1,
				0.9999999403953552,
				0.9999999403953552
			],
			"translation":[
				-1.7763568394002505e-15,
				0.08365567028522491,
				7.450580596923828e-09
			]
		},
		{
			"children":[
				29
			],
			"name":"neck",
			"rotation":[
				-0.021424617618322372,
				2.1709840685151666e-14,
				-5.108024225819463e-09,
				0.9997705221176147
			],
			"translation":[
				-4.440892098500626e-16,
				0.23286640644073486,
				-3.725290298461914e-09
			]
		},
		{
			"children":[
				24,
				27,
				30
			],
			"name":"spine",
			"rotation":[
				-0.041993867605924606,
				-5.955210724550852e-08,
				-1.2515147140845784e-08,
				0.9991178512573242
			],
			"scale":[
				1,
				0.9999999403953552,
				1
			],
			"translation":[
				-5.87552874192418e-17,
				0.14296913146972656,
				-7.670237778256705e-10
			]
		},
		{
			"children":[
				14,
				21,
				31
			],
			"name":"hips",
			"rotation":[
				0.5000001192092896,
				0.5000000596046448,
				-0.49999991059303284,
				0.4999999403953552
			],
			"translation":[
				0.42394253611564636,
				0.01058435533195734,
				3.200677056724999e-08
			]
		},
		{
			"children":[
				9,
				11,
				32
			],
			"name":"origin",
			"rotation":[
				-0.5,
				-0.5,
				0.4999999403953552,
				0.5000000596046448
			],
			"scale":[
				0.9999999403953552,
				0.9999998211860657,
				0.9999999403953552
			]
		},
		{
			"mesh":0,
			"name":"Body",
			"skin":0
		},
		{
			"mesh":1,
			"name":"Coffin",
			"skin":0
		},
		{
			"children":[
				34,
				35,
				33
			],
			"name":"main_RIG"
		}
	],
	"animations":[
		{
			"channels":[
				{
					"sampler":0,
					"target":{
						"node":33,
						"path":"translation"
					}
				},
				{
					"sampler":1,
					"target":{
						"node":33,
						"path":"rotation"
					}
				},
				{
					"sampler":2,
					"target":{
						"node":33,
						"path":"scale"
					}
				},
				{
					"sampler":3,
					"target":{
						"node":9,
						"path":"translation"
					}
				},
				{
					"sampler":4,
					"target":{
						"node":9,
						"path":"rotation"
					}
				},
				{
					"sampler":5,
					"target":{
						"node":9,
						"path":"scale"
					}
				},
				{
					"sampler":6,
					"target":{
						"node":0,
						"path":"translation"
					}
				},
				{
					"sampler":7,
					"target":{
						"node":0,
						"path":"rotation"
					}
				},
				{
					"sampler":8,
					"target":{
						"node":0,
						"path":"scale"
					}
				},
				{
					"sampler":9,
					"target":{
						"node":2,
						"path":"translation"
					}
				},
				{
					"sampler":10,
					"target":{
						"node":2,
						"path":"rotation"
					}
				},
				{
					"sampler":11,
					"target":{
						"node":2,
						"path":"scale"
					}
				},
				{
					"sampler":12,
					"target":{
						"node":1,
						"path":"translation"
					}
				},
				{
					"sampler":13,
					"target":{
						"node":1,
						"path":"rotation"
					}
				},
				{
					"sampler":14,
					"target":{
						"node":1,
						"path":"scale"
					}
				},
				{
					"sampler":15,
					"target":{
						"node":4,
						"path":"translation"
					}
				},
				{
					"sampler":16,
					"target":{
						"node":4,
						"path":"rotation"
					}
				},
				{
					"sampler":17,
					"target":{
						"node":4,
						"path":"scale"
					}
				},
				{
					"sampler":18,
					"target":{
						"node":3,
						"path":"translation"
					}
				},
				{
					"sampler":19,
					"target":{
						"node":3,
						"path":"rotation"
					}
				},
				{
					"sampler":20,
					"target":{
						"node":3,
						"path":"scale"
					}
				},
				{
					"sampler":21,
					"target":{
						"node":6,
						"path":"translation"
					}
				},
				{
					"sampler":22,
					"target":{
						"node":6,
						"path":"rotation"
					}
				},
				{
					"sampler":23,
					"target":{
						"node":6,
						"path":"scale"
					}
				},
				{
					"sampler":24,
					"target":{
						"node":5,
						"path":"translation"
					}
				},
				{
					"sampler":25,
					"target":{
						"node":5,
						"path":"rotation"
					}
				},
				{
					"sampler":26,
					"target":{
						"node":5,
						"path":"scale"
					}
				},
				{
					"sampler":27,
					"target":{
						"node":8,
						"path":"translation"
					}
				},
				{
					"sampler":28,
					"target":{
						"node":8,
						"path":"rotation"
					}
				},
				{
					"sampler":29,
					"target":{
						"node":8,
						"path":"scale"
					}
				},
				{
					"sampler":30,
					"target":{
						"node":7,
						"path":"translation"
					}
				},
				{
					"sampler":31,
					"target":{
						"node":7,
						"path":"rotation"
					}
				},
				{
					"sampler":32,
					"target":{
						"node":7,
						"path":"scale"
					}
				},
				{
					"sampler":33,
					"target":{
						"node":11,
						"path":"translation"
					}
				},
				{
					"sampler":34,
					"target":{
						"node":11,
						"path":"rotation"
					}
				},
				{
					"sampler":35,
					"target":{
						"node":11,
						"path":"scale"
					}
				},
				{
					"sampler":36,
					"target":{
						"node":10,
						"path":"translation"
					}
				},
				{
					"sampler":37,
					"target":{
						"node":10,
						"path":"rotation"
					}
				},
				{
					"sampler":38,
					"target":{
						"node":10,
						"path":"scale"
					}
				},
				{
					"sampler":39,
					"target":{
						"node":32,
						"path":"translation"
					}
				},
				{
					"sampler":40,
					"target":{
						"node":32,
						"path":"rotation"
					}
				},
				{
					"sampler":41,
					"target":{
						"node":32,
						"path":"scale"
					}
				},
				{
					"sampler":42,
					"target":{
						"node":14,
						"path":"translation"
					}
				},
				{
					"sampler":43,
					"target":{
						"node":14,
						"path":"rotation"
					}
				},
				{
					"sampler":44,
					"target":{
						"node":14,
						"path":"scale"
					}
				},
				{
					"sampler":45,
					"target":{
						"node":13,
						"path":"translation"
					}
				},
				{
					"sampler":46,
					"target":{
						"node":13,
						"path":"rotation"
					}
				},
				{
					"sampler":47,
					"target":{
						"node":13,
						"path":"scale"
					}
				},
				{
					"sampler":48,
					"target":{
						"node":12,
						"path":"translation"
					}
				},
				{
					"sampler":49,
					"target":{
						"node":12,
						"path":"rotation"
					}
				},
				{
					"sampler":50,
					"target":{
						"node":12,
						"path":"scale"
					}
				},
				{
					"sampler":51,
					"target":{
						"node":21,
						"path":"translation"
					}
				},
				{
					"sampler":52,
					"target":{
						"node":21,
						"path":"rotation"
					}
				},
				{
					"sampler":53,
					"target":{
						"node":21,
						"path":"scale"
					}
				},
				{
					"sampler":54,
					"target":{
						"node":20,
						"path":"translation"
					}
				},
				{
					"sampler":55,
					"target":{
						"node":20,
						"path":"rotation"
					}
				},
				{
					"sampler":56,
					"target":{
						"node":20,
						"path":"scale"
					}
				},
				{
					"sampler":57,
					"target":{
						"node":18,
						"path":"translation"
					}
				},
				{
					"sampler":58,
					"target":{
						"node":18,
						"path":"rotation"
					}
				},
				{
					"sampler":59,
					"target":{
						"node":18,
						"path":"scale"
					}
				},
				{
					"sampler":60,
					"target":{
						"node":17,
						"path":"translation"
					}
				},
				{
					"sampler":61,
					"target":{
						"node":17,
						"path":"rotation"
					}
				},
				{
					"sampler":62,
					"target":{
						"node":17,
						"path":"scale"
					}
				},
				{
					"sampler":63,
					"target":{
						"node":16,
						"path":"translation"
					}
				},
				{
					"sampler":64,
					"target":{
						"node":16,
						"path":"rotation"
					}
				},
				{
					"sampler":65,
					"target":{
						"node":16,
						"path":"scale"
					}
				},
				{
					"sampler":66,
					"target":{
						"node":15,
						"path":"translation"
					}
				},
				{
					"sampler":67,
					"target":{
						"node":15,
						"path":"rotation"
					}
				},
				{
					"sampler":68,
					"target":{
						"node":15,
						"path":"scale"
					}
				},
				{
					"sampler":69,
					"target":{
						"node":19,
						"path":"translation"
					}
				},
				{
					"sampler":70,
					"target":{
						"node":19,
						"path":"rotation"
					}
				},
				{
					"sampler":71,
					"target":{
						"node":19,
						"path":"scale"
					}
				},
				{
					"sampler":72,
					"target":{
						"node":31,
						"path":"translation"
					}
				},
				{
					"sampler":73,
					"target":{
						"node":31,
						"path":"rotation"
					}
				},
				{
					"sampler":74,
					"target":{
						"node":31,
						"path":"scale"
					}
				},
				{
					"sampler":75,
					"target":{
						"node":24,
						"path":"translation"
					}
				},
				{
					"sampler":76,
					"target":{
						"node":24,
						"path":"rotation"
					}
				},
				{
					"sampler":77,
					"target":{
						"node":24,
						"path":"scale"
					}
				},
				{
					"sampler":78,
					"target":{
						"node":23,
						"path":"translation"
					}
				},
				{
					"sampler":79,
					"target":{
						"node":23,
						"path":"rotation"
					}
				},
				{
					"sampler":80,
					"target":{
						"node":23,
						"path":"scale"
					}
				},
				{
					"sampler":81,
					"target":{
						"node":22,
						"path":"translation"
					}
				},
				{
					"sampler":82,
					"target":{
						"node":22,
						"path":"rotation"
					}
				},
				{
					"sampler":83,
					"target":{
						"node":22,
						"path":"scale"
					}
				},
				{
					"sampler":84,
					"target":{
						"node":27,
						"path":"translation"
					}
				},
				{
					"sampler":85,
					"target":{
						"node":27,
						"path":"rotation"
					}
				},
				{
					"sampler":86,
					"target":{
						"node":27,
						"path":"scale"
					}
				},
				{
					"sampler":87,
					"target":{
						"node":26,
						"path":"translation"
					}
				},
				{
					"sampler":88,
					"target":{
						"node":26,
						"path":"rotation"
					}
				},
				{
					"sampler":89,
					"target":{
						"node":26,
						"path":"scale"
					}
				},
				{
					"sampler":90,
					"target":{
						"node":25,
						"path":"translation"
					}
				},
				{
					"sampler":91,
					"target":{
						"node":25,
						"path":"rotation"
					}
				},
				{
					"sampler":92,
					"target":{
						"node":25,
						"path":"scale"
					}
				},
				{
					"sampler":93,
					"target":{
						"node":30,
						"path":"translation"
					}
				},
				{
					"sampler":94,
					"target":{
						"node":30,
						"path":"rotation"
					}
				},
				{
					"sampler":95,
					"target":{
						"node":30,
						"path":"scale"
					}
				},
				{
					"sampler":96,
					"target":{
						"node":29,
						"path":"translation"
					}
				},
				{
					"sampler":97,
					"target":{
						"node":29,
						"path":"rotation"
					}
				},
				{
					"sampler":98,
					"target":{
						"node":29,
						"path":"scale"
					}
				},
				{
					"sampler":99,
					"target":{
						"node":28,
						"path":"translation"
					}
				},
				{
					"sampler":100,
					"target":{
						"node":28,
						"path":"rotation"
					}
				},
				{
					"sampler":101,
					"target":{
						"node":28,
						"path":"scale"
					}
				}
			],
			"name":"Idle",
			"samplers":[
				{
					"input":43,
					"interpolation":"STEP",
					"output":44
				},
				{
					"input":43,
					"interpolation":"STEP",
					"output":45
				},
				{
					"input":43,
					"interpolation":"STEP",
					"output":46
				},
				{
					"input":43,
					"interpolation":"STEP",
					"output":47
				},
				{
					"input":43,
					"interpolation":"STEP",
					"output":48
				},
				{
					"input":43,
					"interpolation":"STEP",
					"output":49
				},
				{
					"input":50,
					"interpolation":"LINEAR",
					"output":51
				},
				{
					"input":43,
					"interpolation":"STEP",
					"output":52
				},
				{
					"input":43,
					"interpolation":"STEP",
					"output":53
				},
				{
					"input":43,
					"interpolation":"STEP",
					"output":54
				},
				{
					"input":43,
					"interpolation":"STEP",
					"output":55
				},
				{
					"input":43,
					"interpolation":"STEP",
					"output":56
				},
				{
					"input":43,
					"interpolation":"STEP",
					"output":57
				},
				{
					"input":43,
					"interpolation":"STEP",
					"output":58
				},
				{
					"input":43,
					"interpolation":"STEP",
					"output":59
				},
				{
					"input":43,
					"interpolation":"STEP",
					"output":60
				},
				{
					"input":43,
					"interpolation":"STEP",
					"output":61
				},
				{
					"input":43,
					"interpolation":"STEP",
					"output":62
				},
				{
					"input":43,
					"interpolation":"STEP",
					"output":63
				},
				{
					"input":43,
					"interpolation":"STEP",
					"output":64
				},
				{
					"input":43,
					"interpolation":"STEP",
					"output":53
				},
				{
					"input":50,
					"interpolation":"LINEAR",
					"output":65
				},
				{
					"input":50,
					"interpolation":"LINEAR",
					"output":66
				},
				{
					"input":43,
					"interpolation":"STEP",
					"output":67
				},
				{
					"input":50,
					"interpolation":"LINEAR",
					"output":68
				},
				{
					"input":43,
					"interpolation":"STEP",
					"output":69
				},
				{
					"input":43,
					"interpolation":"STEP",
					"output":70
				},
				{
					"input":50,
					"interpolation":"LINEAR",
					"output":71
				},
				{
					"input":50,
					"interpolation":"LINEAR",
					"output":72
				},
				{
					"input":43,
					"interpolation":"STEP",
					"output":73
				},
				{
					"input":43,
					"interpolation":"STEP",
					"output":74
				},
				{
					"input":43,
					"interpolation":"STEP",
					"output":75
				},
				{
					"input":43,
					"interpolation":"STEP",
					"output":76
				},
				{
					"input":50,
					"interpolation":"LINEAR",
					"output":77
				},
				{
					"input":50,
					"interpolation":"LINEAR",
					"output":78
				},
				{
					"input":43,
					"interpolation":"STEP",
					"output":79
				},
				{
					"input":43,
					"interpolation":"STEP",
					"output":80
				},
				{
					"input":43,
					"interpolation":"STEP",
					"output":81
				},
				{
					"input":43,
					"interpolation":"STEP",
					"output":82
				},
				{
					"input":50,
					"interpolation":"LINEAR",
					"output":83
				},
				{
					"input":50,
					"interpolation":"LINEAR",
					"output":84
				},
				{
					"input":43,
					"interpolation":"STEP",
					"output":53
				},
				{
					"input":43,
					"interpolation":"STEP",
					"output":85
				},
				{
					"input":50,
					"interpolation":"LINEAR",
					"output":86
				},
				{
					"input":43,
					"interpolation":"STEP",
					"output":87
				},
				{
					"input":43,
					"interpolation":"STEP",
					"output":88
				},
				{
					"input":50,
					"interpolation":"LINEAR",
					"output":89
				},
				{
					"input":43,
					"interpolation":"STEP",
					"output":90
				},
				{
					"input":43,
					"interpolation":"STEP",
					"output":91
				},
				{
					"input":50,
					"interpolation":"LINEAR",
					"output":92
				},
				{
					"input":43,
					"interpolation":"STEP",
					"output":93
				},
				{
					"input":43,
					"interpolation":"STEP",
					"output":94
				},
				{
					"input":50,
					"interpolation":"LINEAR",
					"output":95
				},
				{
					"input":43,
					"interpolation":"STEP",
					"output":96
				},
				{
					"input":43,
					"interpolation":"STEP",
					"output":97
				},
				{
					"input":50,
					"interpolation":"LINEAR",
					"output":98
				},
				{
					"input":43,
					"interpolation":"STEP",
					"output":99
				},
				{
					"input":43,
					"interpolation":"STEP",
					"output":100
				},
				{
					"input":50,
					"interpolation":"LINEAR",
					"output":101
				},
				{
					"input":43,
					"interpolation":"STEP",
					"output":102
				},
				{
					"input":43,
					"interpolation":"STEP",
					"output":103
				},
				{
					"input":50,
					"interpolation":"LINEAR",
					"output":104
				},
				{
					"input":43,
					"interpolation":"STEP",
					"output":105
				},
				{
					"input":43,
					"interpolation":"STEP",
					"output":106
				},
				{
					"input":50,
					"interpolation":"LINEAR",
					"output":107
				},
				{
					"input":43,
					"interpolation":"STEP",
					"output":108
				},
				{
					"input":43,
					"interpolation":"STEP",
					"output":109
				},
				{
					"input":50,
					"interpolation":"LINEAR",
					"output":110
				},
				{
					"input":43,
					"interpolation":"STEP",
					"output":111
				},
				{
					"input":43,
					"interpolation":"STEP",
					"output":112
				},
				{
					"input":50,
					"interpolation":"LINEAR",
					"output":113
				},
				{
					"input":43,
					"interpolation":"STEP",
					"output":114
				},
				{
					"input":43,
					"interpolation":"STEP",
					"output":115
				},
				{
					"input":50,
					"interpolation":"LINEAR",
					"output":116
				},
				{
					"input":43,
					"interpolation":"STEP",
					"output":117
				},
				{
					"input":43,
					"interpolation":"STEP",
					"output":118
				},
				{
					"input":50,
					"interpolation":"LINEAR",
					"output":119
				},
				{
					"input":43,
					"interpolation":"STEP",
					"output":120
				},
				{
					"input":43,
					"interpolation":"STEP",
					"output":121
				},
				{
					"input":50,
					"interpolation":"LINEAR",
					"output":122
				},
				{
					"input":43,
					"interpolation":"STEP",
					"output":123
				},
				{
					"input":43,
					"interpolation":"STEP",
					"output":124
				},
				{
					"input":50,
					"interpolation":"LINEAR",
					"output":125
				},
				{
					"input":43,
					"interpolation":"STEP",
					"output":126
				},
				{
					"input":43,
					"interpolation":"STEP",
					"output":127
				},
				{
					"input":50,
					"interpolation":"LINEAR",
					"output":128
				},
				{
					"input":43,
					"interpolation":"STEP",
					"output":129
				},
				{
					"input":43,
					"interpolation":"STEP",
					"output":130
				},
				{
					"input":50,
					"interpolation":"LINEAR",
					"output":131
				},
				{
					"input":43,
					"interpolation":"STEP",
					"output":132
				},
				{
					"input":43,
					"interpolation":"STEP",
					"output":133
				},
				{
					"input":50,
					"interpolation":"LINEAR",
					"output":134
				},
				{
					"input":43,
					"interpolation":"STEP",
					"output":135
				},
				{
					"input":43,
					"interpolation":"STEP",
					"output":136
				},
				{
					"input":50,
					"interpolation":"LINEAR",
					"output":137
				},
				{
					"input":43,
					"interpolation":"STEP",
					"output":138
				},
				{
					"input":43,
					"interpolation":"STEP",
					"output":139
				},
				{
					"input":50,
					"interpolation":"LINEAR",
					"output":140
				},
				{
					"input":43,
					"interpolation":"STEP",
					"output":141
				},
				{
					"input":50,
					"interpolation":"LINEAR",
					"output":142
				},
				{
					"input":43,
					"interpolation":"STEP",
					"output":143
				},
				{
					"input":50,
					"interpolation":"LINEAR",
					"output":144
				}
			]
		},
		{
			"channels":[
				{
					"sampler":0,
					"target":{
						"node":33,
						"path":"translation"
					}
				},
				{
					"sampler":1,
					"target":{
						"node":33,
						"path":"rotation"
					}
				},
				{
					"sampler":2,
					"target":{
						"node":33,
						"path":"scale"
					}
				},
				{
					"sampler":3,
					"target":{
						"node":9,
						"path":"translation"
					}
				},
				{
					"sampler":4,
					"target":{
						"node":9,
						"path":"rotation"
					}
				},
				{
					"sampler":5,
					"target":{
						"node":9,
						"path":"scale"
					}
				},
				{
					"sampler":6,
					"target":{
						"node":0,
						"path":"translation"
					}
				},
				{
					"sampler":7,
					"target":{
						"node":0,
						"path":"rotation"
					}
				},
				{
					"sampler":8,
					"target":{
						"node":0,
						"path":"scale"
					}
				},
				{
					"sampler":9,
					"target":{
						"node":2,
						"path":"translation"
					}
				},
				{
					"sampler":10,
					"target":{
						"node":2,
						"path":"rotation"
					}
				},
				{
					"sampler":11,
					"target":{
						"node":2,
						"path":"scale"
					}
				},
				{
					"sampler":12,
					"target":{
						"node":1,
						"path":"translation"
					}
				},
				{
					"sampler":13,
					"target":{
						"node":1,
						"path":"rotation"
					}
				},
				{
					"sampler":14,
					"target":{
						"node":1,
						"path":"scale"
					}
				},
				{
					"sampler":15,
					"target":{
						"node":4,
						"path":"translation"
					}
				},
				{
					"sampler":16,
					"target":{
						"node":4,
						"path":"rotation"
					}
				},
				{
					"sampler":17,
					"target":{
						"node":4,
						"path":"scale"
					}
				},
				{
					"sampler":18,
					"target":{
						"node":3,
						"path":"translation"
					}
				},
				{
					"sampler":19,
					"target":{
						"node":3,
						"path":"rotation"
					}
				},
				{
					"sampler":20,
					"target":{
						"node":3,
						"path":"scale"
					}
				},
				{
					"sampler":21,
					"target":{
						"node":6,
						"path":"translation"
					}
				},
				{
					"sampler":22,
					"target":{
						"node":6,
						"path":"rotation"
					}
				},
				{
					"sampler":23,
					"target":{
						"node":6,
						"path":"scale"
					}
				},
				{
					"sampler":24,
					"target":{
						"node":5,
						"path":"translation"
					}
				},
				{
					"sampler":25,
					"target":{
						"node":5,
						"path":"rotation"
					}
				},
				{
					"sampler":26,
					"target":{
						"node":5,
						"path":"scale"
					}
				},
				{
					"sampler":27,
					"target":{
						"node":8,
						"path":"translation"
					}
				},
				{
					"sampler":28,
					"target":{
						"node":8,
						"path":"rotation"
					}
				},
				{
					"sampler":29,
					"target":{
						"node":8,
						"path":"scale"
					}
				},
				{
					"sampler":30,
					"target":{
						"node":7,
						"path":"translation"
					}
				},
				{
					"sampler":31,
					"target":{
						"node":7,
						"path":"rotation"
					}
				},
				{
					"sampler":32,
					"target":{
						"node":7,
						"path":"scale"
					}
				},
				{
					"sampler":33,
					"target":{
						"node":11,
						"path":"translation"
					}
				},
				{
					"sampler":34,
					"target":{
						"node":11,
						"path":"rotation"
					}
				},
				{
					"sampler":35,
					"target":{
						"node":11,
						"path":"scale"
					}
				},
				{
					"sampler":36,
					"target":{
						"node":10,
						"path":"translation"
					}
				},
				{
					"sampler":37,
					"target":{
						"node":10,
						"path":"rotation"
					}
				},
				{
					"sampler":38,
					"target":{
						"node":10,
						"path":"scale"
					}
				},
				{
					"sampler":39,
					"target":{
						"node":32,
						"path":"translation"
					}
				},
				{
					"sampler":40,
					"target":{
						"node":32,
						"path":"rotation"
					}
				},
				{
					"sampler":41,
					"target":{
						"node":32,
						"path":"scale"
					}
				},
				{
					"sampler":42,
					"target":{
						"node":14,
						"path":"translation"
					}
				},
				{
					"sampler":43,
					"target":{
						"node":14,
						"path":"rotation"
					}
				},
				{
					"sampler":44,
					"target":{
						"node":14,
						"path":"scale"
					}
				},
				{
					"sampler":45,
					"target":{
						"node":13,
						"path":"translation"
					}
				},
				{
					"sampler":46,
					"target":{
						"node":13,
						"path":"rotation"
					}
				},
				{
					"sampler":47,
					"target":{
						"node":13,
						"path":"scale"
					}
				},
				{
					"sampler":48,
					"target":{
						"node":12,
						"path":"translation"
					}
				},
				{
					"sampler":49,
					"target":{
						"node":12,
						"path":"rotation"
					}
				},
				{
					"sampler":50,
					"target":{
						"node":12,
						"path":"scale"
					}
				},
				{
					"sampler":51,
					"target":{
						"node":21,
						"path":"translation"
					}
				},
				{
					"sampler":52,
					"target":{
						"node":21,
						"path":"rotation"
					}
				},
				{
					"sampler":53,
					"target":{
						"node":21,
						"path":"scale"
					}
				},
				{
					"sampler":54,
					"target":{
						"node":20,
						"path":"translation"
					}
				},
				{
					"sampler":55,
					"target":{
						"node":20,
						"path":"rotation"
					}
				},
				{
					"sampler":56,
					"target":{
						"node":20,
						"path":"scale"
					}
				},
				{
					"sampler":57,
					"target":{
						"node":18,
						"path":"translation"
					}
				},
				{
					"sampler":58,
					"target":{
						"node":18,
						"path":"rotation"
					}
				},
				{
					"sampler":59,
					"target":{
						"node":18,
						"path":"scale"
					}
				},
				{
					"sampler":60,
					"target":{
						"node":17,
						"path":"translation"
					}
				},
				{
					"sampler":61,
					"target":{
						"node":17,
						"path":"rotation"
					}
				},
				{
					"sampler":62,
					"target":{
						"node":17,
						"path":"scale"
					}
				},
				{
					"sampler":63,
					"target":{
						"node":16,
						"path":"translation"
					}
				},
				{
					"sampler":64,
					"target":{
						"node":16,
						"path":"rotation"
					}
				},
				{
					"sampler":65,
					"target":{
						"node":16,
						"path":"scale"
					}
				},
				{
					"sampler":66,
					"target":{
						"node":15,
						"path":"translation"
					}
				},
				{
					"sampler":67,
					"target":{
						"node":15,
						"path":"rotation"
					}
				},
				{
					"sampler":68,
					"target":{
						"node":15,
						"path":"scale"
					}
				},
				{
					"sampler":69,
					"target":{
						"node":19,
						"path":"translation"
					}
				},
				{
					"sampler":70,
					"target":{
						"node":19,
						"path":"rotation"
					}
				},
				{
					"sampler":71,
					"target":{
						"node":19,
						"path":"scale"
					}
				},
				{
					"sampler":72,
					"target":{
						"node":31,
						"path":"translation"
					}
				},
				{
					"sampler":73,
					"target":{
						"node":31,
						"path":"rotation"
					}
				},
				{
					"sampler":74,
					"target":{
						"node":31,
						"path":"scale"
					}
				},
				{
					"sampler":75,
					"target":{
						"node":24,
						"path":"translation"
					}
				},
				{
					"sampler":76,
					"target":{
						"node":24,
						"path":"rotation"
					}
				},
				{
					"sampler":77,
					"target":{
						"node":24,
						"path":"scale"
					}
				},
				{
					"sampler":78,
					"target":{
						"node":23,
						"path":"translation"
					}
				},
				{
					"sampler":79,
					"target":{
						"node":23,
						"path":"rotation"
					}
				},
				{
					"sampler":80,
					"target":{
						"node":23,
						"path":"scale"
					}
				},
				{
					"sampler":81,
					"target":{
						"node":22,
						"path":"translation"
					}
				},
				{
					"sampler":82,
					"target":{
						"node":22,
						"path":"rotation"
					}
				},
				{
					"sampler":83,
					"target":{
						"node":22,
						"path":"scale"
					}
				},
				{
					"sampler":84,
					"target":{
						"node":27,
						"path":"translation"
					}
				},
				{
					"sampler":85,
					"target":{
						"node":27,
						"path":"rotation"
					}
				},
				{
					"sampler":86,
					"target":{
						"node":27,
						"path":"scale"
					}
				},
				{
					"sampler":87,
					"target":{
						"node":26,
						"path":"translation"
					}
				},
				{
					"sampler":88,
					"target":{
						"node":26,
						"path":"rotation"
					}
				},
				{
					"sampler":89,
					"target":{
						"node":26,
						"path":"scale"
					}
				},
				{
					"sampler":90,
					"target":{
						"node":25,
						"path":"translation"
					}
				},
				{
					"sampler":91,
					"target":{
						"node":25,
						"path":"rotation"
					}
				},
				{
					"sampler":92,
					"target":{
						"node":25,
						"path":"scale"
					}
				},
				{
					"sampler":93,
					"target":{
						"node":30,
						"path":"translation"
					}
				},
				{
					"sampler":94,
					"target":{
						"node":30,
						"path":"rotation"
					}
				},
				{
					"sampler":95,
					"target":{
						"node":30,
						"path":"scale"
					}
				},
				{
					"sampler":96,
					"target":{
						"node":29,
						"path":"translation"
					}
				},
				{
					"sampler":97,
					"target":{
						"node":29,
						"path":"rotation"
					}
				},
				{
					"sampler":98,
					"target":{
						"node":29,
						"path":"scale"
					}
				},
				{
					"sampler":99,
					"target":{
						"node":28,
						"path":"translation"
					}
				},
				{
					"sampler":100,
					"target":{
						"node":28,
						"path":"rotation"
					}
				},
				{
					"sampler":101,
					"target":{
						"node":28,
						"path":"scale"
					}
				}
			],
			"name":"Idling",
			"samplers":[
				{
					"input":43,
					"interpolation":"STEP",
					"output":44
				},
				{
					"input":43,
					"interpolation":"STEP",
					"output":45
				},
				{
					"input":43,
					"interpolation":"STEP",
					"output":46
				},
				{
					"input":43,
					"interpolation":"STEP",
					"output":47
				},
				{
					"input":43,
					"interpolation":"STEP",
					"output":48
				},
				{
					"input":43,
					"interpolation":"STEP",
					"output":49
				},
				{
					"input":50,
					"interpolation":"LINEAR",
					"output":51
				},
				{
					"input":43,
					"interpolation":"STEP",
					"output":52
				},
				{
					"input":43,
					"interpolation":"STEP",
					"output":53
				},
				{
					"input":43,
					"interpolation":"STEP",
					"output":54
				},
				{
					"input":43,
					"interpolation":"STEP",
					"output":55
				},
				{
					"input":43,
					"interpolation":"STEP",
					"output":56
				},
				{
					"input":43,
					"interpolation":"STEP",
					"output":145
				},
				{
					"input":43,
					"interpolation":"STEP",
					"output":58
				},
				{
					"input":43,
					"interpolation":"STEP",
					"output":59
				},
				{
					"input":43,
					"interpolation":"STEP",
					"output":60
				},
				{
					"input":43,
					"interpolation":"STEP",
					"output":146
				},
				{
					"input":43,
					"interpolation":"STEP",
					"output":147
				},
				{
					"input":43,
					"interpolation":"STEP",
					"output":148
				},
				{
					"input":43,
					"interpolation":"STEP",
					"output":149
				},
				{
					"input":43,
					"interpolation":"STEP",
					"output":150
				},
				{
					"input":50,
					"interpolation":"LINEAR",
					"output":65
				},
				{
					"input":50,
					"interpolation":"LINEAR",
					"output":151
				},
				{
					"input":43,
					"interpolation":"STEP",
					"output":152
				},
				{
					"input":50,
					"interpolation":"LINEAR",
					"output":153
				},
				{
					"input":43,
					"interpolation":"STEP",
					"output":154
				},
				{
					"input":43,
					"interpolation":"STEP",
					"output":155
				},
				{
					"input":50,
					"interpolation":"LINEAR",
					"output":71
				},
				{
					"input":50,
					"interpolation":"LINEAR",
					"output":156
				},
				{
					"input":43,
					"interpolation":"STEP",
					"output":157
				},
				{
					"input":43,
					"interpolation":"STEP",
					"output":158
				},
				{
					"input":43,
					"interpolation":"STEP",
					"output":159
				},
				{
					"input":43,
					"interpolation":"STEP",
					"output":160
				},
				{
					"input":50,
					"interpolation":"LINEAR",
					"output":77
				},
				{
					"input":50,
					"interpolation":"LINEAR",
					"output":161
				},
				{
					"input":43,
					"interpolation":"STEP",
					"output":162
				},
				{
					"input":43,
					"interpolation":"STEP",
					"output":163
				},
				{
					"input":43,
					"interpolation":"STEP",
					"output":164
				},
				{
					"input":43,
					"interpolation":"STEP",
					"output":165
				},
				{
					"input":50,
					"interpolation":"LINEAR",
					"output":83
				},
				{
					"input":50,
					"interpolation":"LINEAR",
					"output":166
				},
				{
					"input":43,
					"interpolation":"STEP",
					"output":167
				},
				{
					"input":43,
					"interpolation":"STEP",
					"output":168
				},
				{
					"input":50,
					"interpolation":"LINEAR",
					"output":169
				},
				{
					"input":43,
					"interpolation":"STEP",
					"output":170
				},
				{
					"input":43,
					"interpolation":"STEP",
					"output":171
				},
				{
					"input":50,
					"interpolation":"LINEAR",
					"output":172
				},
				{
					"input":43,
					"interpolation":"STEP",
					"output":173
				},
				{
					"input":43,
					"interpolation":"STEP",
					"output":174
				},
				{
					"input":50,
					"interpolation":"LINEAR",
					"output":175
				},
				{
					"input":43,
					"interpolation":"STEP",
					"output":176
				},
				{
					"input":43,
					"interpolation":"STEP",
					"output":177
				},
				{
					"input":50,
					"interpolation":"LINEAR",
					"output":178
				},
				{
					"input":43,
					"interpolation":"STEP",
					"output":179
				},
				{
					"input":43,
					"interpolation":"STEP",
					"output":180
				},
				{
					"input":50,
					"interpolation":"LINEAR",
					"output":181
				},
				{
					"input":43,
					"interpolation":"STEP",
					"output":182
				},
				{
					"input":43,
					"interpolation":"STEP",
					"output":183
				},
				{
					"input":50,
					"interpolation":"LINEAR",
					"output":184
				},
				{
					"input":43,
					"interpolation":"STEP",
					"output":185
				},
				{
					"input":43,
					"interpolation":"STEP",
					"output":186
				},
				{
					"input":50,
					"interpolation":"LINEAR",
					"output":187
				},
				{
					"input":43,
					"interpolation":"STEP",
					"output":188
				},
				{
					"input":43,
					"interpolation":"STEP",
					"output":189
				},
				{
					"input":50,
					"interpolation":"LINEAR",
					"output":190
				},
				{
					"input":43,
					"interpolation":"STEP",
					"output":191
				},
				{
					"input":43,
					"interpolation":"STEP",
					"output":192
				},
				{
					"input":50,
					"interpolation":"LINEAR",
					"output":193
				},
				{
					"input":43,
					"interpolation":"STEP",
					"output":194
				},
				{
					"input":43,
					"interpolation":"STEP",
					"output":195
				},
				{
					"input":50,
					"interpolation":"LINEAR",
					"output":196
				},
				{
					"input":43,
					"interpolation":"STEP",
					"output":197
				},
				{
					"input":43,
					"interpolation":"STEP",
					"output":198
				},
				{
					"input":50,
					"interpolation":"LINEAR",
					"output":199
				},
				{
					"input":43,
					"interpolation":"STEP",
					"output":117
				},
				{
					"input":43,
					"interpolation":"STEP",
					"output":200
				},
				{
					"input":50,
					"interpolation":"LINEAR",
					"output":201
				},
				{
					"input":43,
					"interpolation":"STEP",
					"output":202
				},
				{
					"input":43,
					"interpolation":"STEP",
					"output":203
				},
				{
					"input":50,
					"interpolation":"LINEAR",
					"output":204
				},
				{
					"input":43,
					"interpolation":"STEP",
					"output":205
				},
				{
					"input":43,
					"interpolation":"STEP",
					"output":206
				},
				{
					"input":50,
					"interpolation":"LINEAR",
					"output":207
				},
				{
					"input":43,
					"interpolation":"STEP",
					"output":208
				},
				{
					"input":43,
					"interpolation":"STEP",
					"output":209
				},
				{
					"input":50,
					"interpolation":"LINEAR",
					"output":210
				},
				{
					"input":43,
					"interpolation":"STEP",
					"output":211
				},
				{
					"input":43,
					"interpolation":"STEP",
					"output":212
				},
				{
					"input":50,
					"interpolation":"LINEAR",
					"output":213
				},
				{
					"input":43,
					"interpolation":"STEP",
					"output":214
				},
				{
					"input":43,
					"interpolation":"STEP",
					"output":215
				},
				{
					"input":50,
					"interpolation":"LINEAR",
					"output":216
				},
				{
					"input":43,
					"interpolation":"STEP",
					"output":217
				},
				{
					"input":43,
					"interpolation":"STEP",
					"output":218
				},
				{
					"input":50,
					"interpolation":"LINEAR",
					"output":219
				},
				{
					"input":43,
					"interpolation":"STEP",
					"output":150
				},
				{
					"input":43,
					"interpolation":"STEP",
					"output":220
				},
				{
					"input":50,
					"interpolation":"LINEAR",
					"output":221
				},
				{
					"input":43,
					"interpolation":"STEP",
					"output":222
				},
				{
					"input":50,
					"interpolation":"LINEAR",
					"output":223
				},
				{
					"input":43,
					"interpolation":"STEP",
					"output":224
				},
				{
					"input":50,
					"interpolation":"LINEAR",
					"output":225
				}
			]
		}
	],
	"materials":[
		{
			"doubleSided":true,
			"extensions":{
				"KHR_materials_unlit":{}
			},
			"name":"gray_light",
			"pbrMetallicRoughness":{
				"baseColorFactor":[
					0.322265625,
					0.322265625,
					0.322265625,
					1
				],
				"metallicFactor":0,
				"roughnessFactor":0.9
			}
		},
		{
			"doubleSided":true,
			"extensions":{
				"KHR_materials_unlit":{}
			},
			"name":"gray_mid",
			"pbrMetallicRoughness":{
				"baseColorFactor":[
					0.1533203125,
					0.1533203125,
					0.1533203125,
					1
				],
				"metallicFactor":0,
				"roughnessFactor":0.9
			}
		},
		{
			"doubleSided":true,
			"extensions":{
				"KHR_materials_unlit":{}
			},
			"name":"white",
			"pbrMetallicRoughness":{
				"baseColorFactor":[
					4.953776836395264,
					4.953776836395264,
					4.953776836395264,
					1
				],
				"metallicFactor":0,
				"roughnessFactor":0.9
			}
		},
		{
			"doubleSided":true,
			"extensions":{
				"KHR_materials_unlit":{}
			},
			"name":"gray_dark",
			"pbrMetallicRoughness":{
				"baseColorFactor":[
					0.050079263746738434,
					0.050079263746738434,
					0.050079263746738434,
					1
				],
				"metallicFactor":0,
				"roughnessFactor":0.9
			}
		},
		{
			"doubleSided":true,
			"extensions":{
				"KHR_materials_unlit":{}
			},
			"name":"black",
			"pbrMetallicRoughness":{
				"baseColorFactor":[
					0,
					0,
					0,
					1
				],
				"metallicFactor":0,
				"roughnessFactor":0.9
			}
		}
	],
	"meshes":[
		{
			"name":"Cube",
			"primitives":[
				{
					"attributes":{
						"POSITION":0,
						"NORMAL":1,
						"TEXCOORD_0":2,
						"JOINTS_0":3,
						"WEIGHTS_0":4
					},
					"indices":5,
					"material":0
				},
				{
					"attributes":{
						"POSITION":6,
						"NORMAL":7,
						"TEXCOORD_0":8,
						"JOINTS_0":9,
						"WEIGHTS_0":10
					},
					"indices":11,
					"material":1
				},
				{
					"attributes":{
						"POSITION":12,
						"NORMAL":13,
						"TEXCOORD_0":14,
						"JOINTS_0":15,
						"WEIGHTS_0":16
					},
					"indices":17,
					"material":2
				},
				{
					"attributes":{
						"POSITION":18,
						"NORMAL":19,
						"TEXCOORD_0":20,
						"JOINTS_0":21,
						"WEIGHTS_0":22
					},
					"indices":23,
					"material":3
				}
			]
		},
		{
			"name":"Cube.002",
			"primitives":[
				{
					"attributes":{
						"POSITION":25,
						"NORMAL":26,
						"TEXCOORD_0":27,
						"JOINTS_0":28,
						"WEIGHTS_0":29
					},
					"indices":30,
					"material":3
				},
				{
					"attributes":{
						"POSITION":31,
						"NORMAL":32,
						"TEXCOORD_0":33,
						"JOINTS_0":34,
						"WEIGHTS_0":35
					},
					"indices":36,
					"material":1
				},
				{
					"attributes":{
						"POSITION":37,
						"NORMAL":38,
						"TEXCOORD_0":39,
						"JOINTS_0":40,
						"WEIGHTS_0":41
					},
					"indices":42,
					"material":4
				}
			]
		}
	],
	"skins":[
		{
			"inverseBindMatrices":24,
			"joints":[
				33,
				9,
				0,
				2,
				1,
				4,
				3,
				6,
				5,
				8,
				7,
				11,
				10,
				32,
				14,
				13,
				12,
				21,
				20,
				18,
				17,
				16,
				15,
				19,
				31,
				24,
				23,
				22,
				27,
				26,
				25,
				30,
				29,
				28
			],
			"name":"main_RIG"
		}
	],
	"accessors":[
		{
			"bufferView":0,
			"componentType":5126,
			"count":244,
			"max":[
				0.5316844582557678,
				1.2200437784194946,
				0.12914974987506866
			],
			"min":[
				-0.5316844582557678,
				4.467454317591546e-08,
				-0.17735271155834198
			],
			"type":"VEC3"
		},
		{
			"bufferView":1,
			"componentType":5126,
			"count":244,
			"type":"VEC3"
		},
		{
			"bufferView":2,
			"componentType":5126,
			"count":244,
			"type":"VEC2"
		},
		{
			"bufferView":3,
			"componentType":5121,
			"count":244,
			"type":"VEC4"
		},
		{
			"bufferView":4,
			"componentType":5126,
			"count":244,
			"type":"VEC4"
		},
		{
			"bufferView":5,
			"componentType":5123,
			"count":792,
			"type":"SCALAR"
		},
		{
			"bufferView":6,
			"componentType":5126,
			"count":144,
			"max":[
				0.20653526484966278,
				1.3717783689498901,
				0.1043180525302887
			],
			"min":[
				-0.21325473487377167,
				0.5423260927200317,
				-0.14777910709381104
			],
			"type":"VEC3"
		},
		{
			"bufferView":7,
			"componentType":5126,
			"count":144,
			"type":"VEC3"
		},
		{
			"bufferView":8,
			"componentType":5126,
			"count":144,
			"type":"VEC2"
		},
		{
			"bufferView":9,
			"componentType":5121,
			"count":144,
			"type":"VEC4"
		},
		{
			"bufferView":10,
			"componentType":5126,
			"count":144,
			"type":"VEC4"
		},
		{
			"bufferView":11,
			"componentType":5123,
			"count":480,
			"type":"SCALAR"
		},
		{
			"bufferView":12,
			"componentType":5126,
			"count":12,
			"max":[
				0.2092086374759674,
				1.1906217336654663,
				0.13942751288414001
			],
			"min":[
				-0.21482647955417633,
				0.8736267685890198,
				0.09367400407791138
			],
			"type":"VEC3"
		},
		{
			"bufferView":13,
			"componentType":5126,
			"count":12,
			"type":"VEC3"
		},
		{
			"bufferView":14,
			"componentType":5126,
			"count":12,
			"type":"VEC2"
		},
		{
			"bufferView":15,
			"componentType":5121,
			"count":12,
			"type":"VEC4"
		},
		{
			"bufferView":16,
			"componentType":5126,
			"count":12,
			"type":"VEC4"
		},
		{
			"bufferView":17,
			"componentType":5123,
			"count":24,
			"type":"SCALAR"
		},
		{
			"bufferView":18,
			"componentType":5126,
			"count":8,
			"max":[
				-0.17095565795898438,
				0.8293439149856567,
				0.030494635924696922
			],
			"min":[
				-0.2215053141117096,
				0.6816493272781372,
				-0.11719994992017746
			],
			"type":"VEC3"
		},
		{
			"bufferView":19,
			"componentType":5126,
			"count":8,
			"type":"VEC3"
		},
		{
			"bufferView":20,
			"componentType":5126,
			"count":8,
			"type":"VEC2"
		},
		{
			"bufferView":21,
			"componentType":5121,
			"count":8,
			"type":"VEC4"
		},
		{
			"bufferView":22,
			"componentType":5126,
			"count":8,
			"type":"VEC4"
		},
		{
			"bufferView":23,
			"componentType":5123,
			"count":36,
			"type":"SCALAR"
		},
		{
			"bufferView":24,
			"componentType":5126,
			"count":34,
			"type":"MAT4"
		},
		{
			"bufferView":25,
			"componentType":5126,
			"count":92,
			"max":[
				0.9336534738540649,
				0.16753089427947998,
				0.16109006106853485
			],
			"min":[
				0.2944863438606262,
				0.0469168983399868,
				-0.2018844187259674
			],
			"type":"VEC3"
		},
		{
			"bufferView":26,
			"componentType":5126,
			"count":92,
			"type":"VEC3"
		},
		{
			"bufferView":27,
			"componentType":5126,
			"count":92,
			"type":"VEC2"
		},
		{
			"bufferView":28,
			"componentType":5121,
			"count":92,
			"type":"VEC4"
		},
		{
			"bufferView":29,
			"componentType":5126,
			"count":92,
			"type":"VEC4"
		},
		{
			"bufferView":30,
			"componentType":5123,
			"count":144,
			"type":"SCALAR"
		},
		{
			"bufferView":31,
			"componentType":5126,
			"count":616,
			"max":[
				0.30312472581863403,
				0.15474042296409607,
				0.26350608468055725
			],
			"min":[
				-0.1569622904062271,
				0.05970738083124161,
				-0.06783542037010193
			],
			"type":"VEC3"
		},
		{
			"bufferView":32,
			"componentType":5126,
			"count":616,
			"type":"VEC3"
		},
		{
			"bufferView":33,
			"componentType":5126,
			"count":616,
			"type":"VEC2"
		},
		{
			"bufferView":34,
			"componentType":5121,
			"count":616,
			"type":"VEC4"
		},
		{
			"bufferView":35,
			"componentType":5126,
			"count":616,
			"type":"VEC4"
		},
		{
			"bufferView":36,
			"componentType":5123,
			"count":1116,
			"type":"SCALAR"
		},
		{
			"bufferView":37,
			"componentType":5126,
			"count":24,
			"max":[
				0.8550399541854858,
				0.16753089427947998,
				0.16109006106853485
			],
			"min":[
				0.2944863438606262,
				0.0469168983399868,
				-0.2018844187259674
			],
			"type":"VEC3"
		},
		{
			"bufferView":38,
			"componentType":5126,
			"count":24,
			"type":"VEC3"
		},
		{
			"bufferView":39,
			"componentType":5126,
			"count":24,
			"type":"VEC2"
		},
		{
			"bufferView":40,
			"componentType":5121,
			"count":24,
			"type":"VEC4"
		},
		{
			"bufferView":41,
			"componentType":5126,
			"count":24,
			"type":"VEC4"
		},
		{
			"bufferView":42,
			"componentType":5123,
			"count":36,
			"type":"SCALAR"
		},
		{
			"bufferView":43,
			"componentType":5126,
			"count":2,
			"max":[
				0.75
			],
			"min":[
				0
			],
			"type":"SCALAR"
		},
		{
			"bufferView":44,
			"componentType":5126,
			"count":2,
			"type":"VEC3"
		},
		{
			"bufferView":45,
			"componentType":5126,
			"count":2,
			"type":"VEC4"
		},
		{
			"bufferView":46,
			"componentType":5126,
			"count":2,
			"type":"VEC3"
		},
		{
			"bufferView":47,
			"componentType":5126,
			"count":2,
			"type":"VEC3"
		},
		{
			"bufferView":48,
			"componentType":5126,
			"count":2,
			"type":"VEC4"
		},
		{
			"bufferView":49,
			"componentType":5126,
			"count":2,
			"type":"VEC3"
		},
		{
			"bufferView":50,
			"componentType":5126,
			"count":19,
			"max":[
				0.75
			],
			"min":[
				0
			],
			"type":"SCALAR"
		},
		{
			"bufferView":51,
			"componentType":5126,
			"count":19,
			"type":"VEC3"
		},
		{
			"bufferView":52,
			"componentType":5126,
			"count":2,
			"type":"VEC4"
		},
		{
			"bufferView":53,
			"componentType":5126,
			"count":2,
			"type":"VEC3"
		},
		{
			"bufferView":54,
			"componentType":5126,
			"count":2,
			"type":"VEC3"
		},
		{
			"bufferView":55,
			"componentType":5126,
			"count":2,
			"type":"VEC4"
		},
		{
			"bufferView":56,
			"componentType":5126,
			"count":2,
			"type":"VEC3"
		},
		{
			"bufferView":57,
			"componentType":5126,
			"count":2,
			"type":"VEC3"
		},
		{
			"bufferView":58,
			"componentType":5126,
			"count":2,
			"type":"VEC4"
		},
		{
			"bufferView":59,
			"componentType":5126,
			"count":2,
			"type":"VEC3"
		},
		{
			"bufferView":60,
			"componentType":5126,
			"count":2,
			"type":"VEC3"
		},
		{
			"bufferView":61,
			"componentType":5126,
			"count":2,
			"type":"VEC4"
		},
		{
			"bufferView":62,
			"componentType":5126,
			"count":2,
			"type":"VEC3"
		},
		{
			"bufferView":63,
			"componentType":5126,
			"count":2,
			"type":"VEC3"
		},
		{
			"bufferView":64,
			"componentType":5126,
			"count":2,
			"type":"VEC4"
		},
		{
			"bufferView":65,
			"componentType":5126,
			"count":19,
			"type":"VEC3"
		},
		{
			"bufferView":66,
			"componentType":5126,
			"count":19,
			"type":"VEC4"
		},
		{
			"bufferView":67,
			"componentType":5126,
			"count":2,
			"type":"VEC3"
		},
		{
			"bufferView":68,
			"componentType":5126,
			"count":19,
			"type":"VEC3"
		},
		{
			"bufferView":69,
			"componentType":5126,
			"count":2,
			"type":"VEC4"
		},
		{
			"bufferView":70,
			"componentType":5126,
			"count":2,
			"type":"VEC3"
		},
		{
			"bufferView":71,
			"componentType":5126,
			"count":19,
			"type":"VEC3"
		},
		{
			"bufferView":72,
			"componentType":5126,
			"count":19,
			"type":"VEC4"
		},
		{
			"bufferView":73,
			"componentType":5126,
			"count":2,
			"type":"VEC3"
		},
		{
			"bufferView":74,
			"componentType":5126,
			"count":2,
			"type":"VEC3"
		},
		{
			"bufferView":75,
			"componentType":5126,
			"count":2,
			"type":"VEC4"
		},
		{
			"bufferView":76,
			"componentType":5126,
			"count":2,
			"type":"VEC3"
		},
		{
			"bufferView":77,
			"componentType":5126,
			"count":19,
			"type":"VEC3"
		},
		{
			"bufferView":78,
			"componentType":5126,
			"count":19,
			"type":"VEC4"
		},
		{
			"bufferView":79,
			"componentType":5126,
			"count":2,
			"type":"VEC3"
		},
		{
			"bufferView":80,
			"componentType":5126,
			"count":2,
			"type":"VEC3"
		},
		{
			"bufferView":81,
			"componentType":5126,
			"count":2,
			"type":"VEC4"
		},
		{
			"bufferView":82,
			"componentType":5126,
			"count":2,
			"type":"VEC3"
		},
		{
			"bufferView":83,
			"componentType":5126,
			"count":19,
			"type":"VEC3"
		},
		{
			"bufferView":84,
			"componentType":5126,
			"count":19,
			"type":"VEC4"
		},
		{
			"bufferView":85,
			"componentType":5126,
			"count":2,
			"type":"VEC3"
		},
		{
			"bufferView":86,
			"componentType":5126,
			"count":19,
			"type":"VEC4"
		},
		{
			"bufferView":87,
			"componentType":5126,
			"count":2,
			"type":"VEC3"
		},
		{
			"bufferView":88,
			"componentType":5126,
			"count":2,
			"type":"VEC3"
		},
		{
			"bufferView":89,
			"componentType":5126,
			"count":19,
			"type":"VEC4"
		},
		{
			"bufferView":90,
			"componentType":5126,
			"count":2,
			"type":"VEC3"
		},
		{
			"bufferView":91,
			"componentType":5126,
			"count":2,
			"type":"VEC3"
		},
		{
			"bufferView":92,
			"componentType":5126,
			"count":19,
			"type":"VEC4"
		},
		{
			"bufferView":93,
			"componentType":5126,
			"count":2,
			"type":"VEC3"
		},
		{
			"bufferView":94,
			"componentType":5126,
			"count":2,
			"type":"VEC3"
		},
		{
			"bufferView":95,
			"componentType":5126,
			"count":19,
			"type":"VEC4"
		},
		{
			"bufferView":96,
			"componentType":5126,
			"count":2,
			"type":"VEC3"
		},
		{
			"bufferView":97,
			"componentType":5126,
			"count":2,
			"type":"VEC3"
		},
		{
			"bufferView":98,
			"componentType":5126,
			"count":19,
			"type":"VEC4"
		},
		{
			"bufferView":99,
			"componentType":5126,
			"count":2,
			"type":"VEC3"
		},
		{
			"bufferView":100,
			"componentType":5126,
			"count":2,
			"type":"VEC3"
		},
		{
			"bufferView":101,
			"componentType":5126,
			"count":19,
			"type":"VEC4"
		},
		{
			"bufferView":102,
			"componentType":5126,
			"count":2,
			"type":"VEC3"
		},
		{
			"bufferView":103,
			"componentType":5126,
			"count":2,
			"type":"VEC3"
		},
		{
			"bufferView":104,
			"componentType":5126,
			"count":19,
			"type":"VEC4"
		},
		{
			"bufferView":105,
			"componentType":5126,
			"count":2,
			"type":"VEC3"
		},
		{
			"bufferView":106,
			"componentType":5126,
			"count":2,
			"type":"VEC3"
		},
		{
			"bufferView":107,
			"componentType":5126,
			"count":19,
			"type":"VEC4"
		},
		{
			"bufferView":108,
			"componentType":5126,
			"count":2,
			"type":"VEC3"
		},
		{
			"bufferView":109,
			"componentType":5126,
			"count":2,
			"type":"VEC3"
		},
		{
			"bufferView":110,
			"componentType":5126,
			"count":19,
			"type":"VEC4"
		},
		{
			"bufferView":111,
			"componentType":5126,
			"count":2,
			"type":"VEC3"
		},
		{
			"bufferView":112,
			"componentType":5126,
			"count":2,
			"type":"VEC3"
		},
		{
			"bufferView":113,
			"componentType":5126,
			"count":19,
			"type":"VEC4"
		},
		{
			"bufferView":114,
			"componentType":5126,
			"count":2,
			"type":"VEC3"
		},
		{
			"bufferView":115,
			"componentType":5126,
			"count":2,
			"type":"VEC3"
		},
		{
			"bufferView":116,
			"componentType":5126,
			"count":19,
			"type":"VEC4"
		},
		{
			"bufferView":117,
			"componentType":5126,
			"count":2,
			"type":"VEC3"
		},
		{
			"bufferView":118,
			"componentType":5126,
			"count":2,
			"type":"VEC3"
		},
		{
			"bufferView":119,
			"componentType":5126,
			"count":19,
			"type":"VEC4"
		},
		{
			"bufferView":120,
			"componentType":5126,
			"count":2,
			"type":"VEC3"
		},
		{
			"bufferView":121,
			"componentType":5126,
			"count":2,
			"type":"VEC3"
		},
		{
			"bufferView":122,
			"componentType":5126,
			"count":19,
			"type":"VEC4"
		},
		{
			"bufferView":123,
			"componentType":5126,
			"count":2,
			"type":"VEC3"
		},
		{
			"bufferView":124,
			"componentType":5126,
			"count":2,
			"type":"VEC3"
		},
		{
			"bufferView":125,
			"componentType":5126,
			"count":19,
			"type":"VEC4"
		},
		{
			"bufferView":126,
			"componentType":5126,
			"count":2,
			"type":"VEC3"
		},
		{
			"bufferView":127,
			"componentType":5126,
			"count":2,
			"type":"VEC3"
		},
		{
			"bufferView":128,
			"componentType":5126,
			"count":19,
			"type":"VEC4"
		},
		{
			"bufferView":129,
			"componentType":5126,
			"count":2,
			"type":"VEC3"
		},
		{
			"bufferView":130,
			"componentType":5126,
			"count":2,
			"type":"VEC3"
		},
		{
			"bufferView":131,
			"componentType":5126,
			"count":19,
			"type":"VEC4"
		},
		{
			"bufferView":132,
			"componentType":5126,
			"count":2,
			"type":"VEC3"
		},
		{
			"bufferView":133,
			"componentType":5126,
			"count":2,
			"type":"VEC3"
		},
		{
			"bufferView":134,
			"componentType":5126,
			"count":19,
			"type":"VEC4"
		},
		{
			"bufferView":135,
			"componentType":5126,
			"count":2,
			"type":"VEC3"
		},
		{
			"bufferView":136,
			"componentType":5126,
			"count":2,
			"type":"VEC3"
		},
		{
			"bufferView":137,
			"componentType":5126,
			"count":19,
			"type":"VEC4"
		},
		{
			"bufferView":138,
			"componentType":5126,
			"count":2,
			"type":"VEC3"
		},
		{
			"bufferView":139,
			"componentType":5126,
			"count":2,
			"type":"VEC3"
		},
		{
			"bufferView":140,
			"componentType":5126,
			"count":19,
			"type":"VEC4"
		},
		{
			"bufferView":141,
			"componentType":5126,
			"count":2,
			"type":"VEC3"
		},
		{
			"bufferView":142,
			"componentType":5126,
			"count":19,
			"type":"VEC3"
		},
		{
			"bufferView":143,
			"componentType":5126,
			"count":2,
			"type":"VEC4"
		},
		{
			"bufferView":144,
			"componentType":5126,
			"count":19,
			"type":"VEC3"
		},
		{
			"bufferView":145,
			"componentType":5126,
			"count":2,
			"type":"VEC3"
		},
		{
			"bufferView":146,
			"componentType":5126,
			"count":2,
			"type":"VEC4"
		},
		{
			"bufferView":147,
			"componentType":5126,
			"count":2,
			"type":"VEC3"
		},
		{
			"bufferView":148,
			"componentType":5126,
			"count":2,
			"type":"VEC3"
		},
		{
			"bufferView":149,
			"componentType":5126,
			"count":2,
			"type":"VEC4"
		},
		{
			"bufferView":150,
			"componentType":5126,
			"count":2,
			"type":"VEC3"
		},
		{
			"bufferView":151,
			"componentType":5126,
			"count":19,
			"type":"VEC4"
		},
		{
			"bufferView":152,
			"componentType":5126,
			"count":2,
			"type":"VEC3"
		},
		{
			"bufferView":153,
			"componentType":5126,
			"count":19,
			"type":"VEC3"
		},
		{
			"bufferView":154,
			"componentType":5126,
			"count":2,
			"type":"VEC4"
		},
		{
			"bufferView":155,
			"componentType":5126,
			"count":2,
			"type":"VEC3"
		},
		{
			"bufferView":156,
			"componentType":5126,
			"count":19,
			"type":"VEC4"
		},
		{
			"bufferView":157,
			"componentType":5126,
			"count":2,
			"type":"VEC3"
		},
		{
			"bufferView":158,
			"componentType":5126,
			"count":2,
			"type":"VEC3"
		},
		{
			"bufferView":159,
			"componentType":5126,
			"count":2,
			"type":"VEC4"
		},
		{
			"bufferView":160,
			"componentType":5126,
			"count":2,
			"type":"VEC3"
		},
		{
			"bufferView":161,
			"componentType":5126,
			"count":19,
			"type":"VEC4"
		},
		{
			"bufferView":162,
			"componentType":5126,
			"count":2,
			"type":"VEC3"
		},
		{
			"bufferView":163,
			"componentType":5126,
			"count":2,
			"type":"VEC3"
		},
		{
			"bufferView":164,
			"componentType":5126,
			"count":2,
			"type":"VEC4"
		},
		{
			"bufferView":165,
			"componentType":5126,
			"count":2,
			"type":"VEC3"
		},
		{
			"bufferView":166,
			"componentType":5126,
			"count":19,
			"type":"VEC4"
		},
		{
			"bufferView":167,
			"componentType":5126,
			"count":2,
			"type":"VEC3"
		},
		{
			"bufferView":168,
			"componentType":5126,
			"count":2,
			"type":"VEC3"
		},
		{
			"bufferView":169,
			"componentType":5126,
			"count":19,
			"type":"VEC4"
		},
		{
			"bufferView":170,
			"componentType":5126,
			"count":2,
			"type":"VEC3"
		},
		{
			"bufferView":171,
			"componentType":5126,
			"count":2,
			"type":"VEC3"
		},
		{
			"bufferView":172,
			"componentType":5126,
			"count":19,
			"type":"VEC4"
		},
		{
			"bufferView":173,
			"componentType":5126,
			"count":2,
			"type":"VEC3"
		},
		{
			"bufferView":174,
			"componentType":5126,
			"count":2,
			"type":"VEC3"
		},
		{
			"bufferView":175,
			"componentType":5126,
			"count":19,
			"type":"VEC4"
		},
		{
			"bufferView":176,
			"componentType":5126,
			"count":2,
			"type":"VEC3"
		},
		{
			"bufferView":177,
			"componentType":5126,
			"count":2,
			"type":"VEC3"
		},
		{
			"bufferView":178,
			"componentType":5126,
			"count":19,
			"type":"VEC4"
		},
		{
			"bufferView":179,
			"componentType":5126,
			"count":2,
			"type":"VEC3"
		},
		{
			"bufferView":180,
			"componentType":5126,
			"count":2,
			"type":"VEC3"
		},
		{
			"bufferView":181,
			"componentType":5126,
			"count":19,
			"type":"VEC4"
		},
		{
			"bufferView":182,
			"componentType":5126,
			"count":2,
			"type":"VEC3"
		},
		{
			"bufferView":183,
			"componentType":5126,
			"count":2,
			"type":"VEC3"
		},
		{
			"bufferView":184,
			"componentType":5126,
			"count":19,
			"type":"VEC4"
		},
		{
			"bufferView":185,
			"componentType":5126,
			"count":2,
			"type":"VEC3"
		},
		{
			"bufferView":186,
			"componentType":5126,
			"count":2,
			"type":"VEC3"
		},
		{
			"bufferView":187,
			"componentType":5126,
			"count":19,
			"type":"VEC4"
		},
		{
			"bufferView":188,
			"componentType":5126,
			"count":2,
			"type":"VEC3"
		},
		{
			"bufferView":189,
			"componentType":5126,
			"count":2,
			"type":"VEC3"
		},
		{
			"bufferView":190,
			"componentType":5126,
			"count":19,
			"type":"VEC4"
		},
		{
			"bufferView":191,
			"componentType":5126,
			"count":2,
			"type":"VEC3"
		},
		{
			"bufferView":192,
			"componentType":5126,
			"count":2,
			"type":"VEC3"
		},
		{
			"bufferView":193,
			"componentType":5126,
			"count":19,
			"type":"VEC4"
		},
		{
			"bufferView":194,
			"componentType":5126,
			"count":2,
			"type":"VEC3"
		},
		{
			"bufferView":195,
			"componentType":5126,
			"count":2,
			"type":"VEC3"
		},
		{
			"bufferView":196,
			"componentType":5126,
			"count":19,
			"type":"VEC4"
		},
		{
			"bufferView":197,
			"componentType":5126,
			"count":2,
			"type":"VEC3"
		},
		{
			"bufferView":198,
			"componentType":5126,
			"count":2,
			"type":"VEC3"
		},
		{
			"bufferView":199,
			"componentType":5126,
			"count":19,
			"type":"VEC4"
		},
		{
			"bufferView":200,
			"componentType":5126,
			"count":2,
			"type":"VEC3"
		},
		{
			"bufferView":201,
			"componentType":5126,
			"count":19,
			"type":"VEC4"
		},
		{
			"bufferView":202,
			"componentType":5126,
			"count":2,
			"type":"VEC3"
		},
		{
			"bufferView":203,
			"componentType":5126,
			"count":2,
			"type":"VEC3"
		},
		{
			"bufferView":204,
			"componentType":5126,
			"count":19,
			"type":"VEC4"
		},
		{
			"bufferView":205,
			"componentType":5126,
			"count":2,
			"type":"VEC3"
		},
		{
			"bufferView":206,
			"componentType":5126,
			"count":2,
			"type":"VEC3"
		},
		{
			"bufferView":207,
			"componentType":5126,
			"count":19,
			"type":"VEC4"
		},
		{
			"bufferView":208,
			"componentType":5126,
			"count":2,
			"type":"VEC3"
		},
		{
			"bufferView":209,
			"componentType":5126,
			"count":2,
			"type":"VEC3"
		},
		{
			"bufferView":210,
			"componentType":5126,
			"count":19,
			"type":"VEC4"
		},
		{
			"bufferView":211,
			"componentType":5126,
			"count":2,
			"type":"VEC3"
		},
		{
			"bufferView":212,
			"componentType":5126,
			"count":2,
			"type":"VEC3"
		},
		{
			"bufferView":213,
			"componentType":5126,
			"count":19,
			"type":"VEC4"
		},
		{
			"bufferView":214,
			"componentType":5126,
			"count":2,
			"type":"VEC3"
		},
		{
			"bufferView":215,
			"componentType":5126,
			"count":2,
			"type":"VEC3"
		},
		{
			"bufferView":216,
			"componentType":5126,
			"count":19,
			"type":"VEC4"
		},
		{
			"bufferView":217,
			"componentType":5126,
			"count":2,
			"type":"VEC3"
		},
		{
			"bufferView":218,
			"componentType":5126,
			"count":2,
			"type":"VEC3"
		},
		{
			"bufferView":219,
			"componentType":5126,
			"count":19,
			"type":"VEC4"
		},
		{
			"bufferView":220,
			"componentType":5126,
			"count":2,
			"type":"VEC3"
		},
		{
			"bufferView":221,
			"componentType":5126,
			"count":19,
			"type":"VEC4"
		},
		{
			"bufferView":222,
			"componentType":5126,
			"count":2,
			"type":"VEC3"
		},
		{
			"bufferView":223,
			"componentType":5126,
			"count":19,
			"type":"VEC3"
		},
		{
			"bufferView":224,
			"componentType":5126,
			"count":2,
			"type":"VEC4"
		},
		{
			"bufferView":225,
			"componentType":5126,
			"count":19,
			"type":"VEC3"
		}
	],
	"bufferViews":[
		{
			"buffer":0,
			"byteLength":2928,
			"byteOffset":0,
			"target":34962
		},
		{
			"buffer":0,
			"byteLength":2928,
			"byteOffset":2928,
			"target":34962
		},
		{
			"buffer":0,
			"byteLength":1952,
			"byteOffset":5856,
			"target":34962
		},
		{
			"buffer":0,
			"byteLength":976,
			"byteOffset":7808,
			"target":34962
		},
		{
			"buffer":0,
			"byteLength":3904,
			"byteOffset":8784,
			"target":34962
		},
		{
			"buffer":0,
			"byteLength":1584,
			"byteOffset":12688,
			"target":34963
		},
		{
			"buffer":0,
			"byteLength":1728,
			"byteOffset":14272,
			"target":34962
		},
		{
			"buffer":0,
			"byteLength":1728,
			"byteOffset":16000,
			"target":34962
		},
		{
			"buffer":0,
			"byteLength":1152,
			"byteOffset":17728,
			"target":34962
		},
		{
			"buffer":0,
			"byteLength":576,
			"byteOffset":18880,
			"target":34962
		},
		{
			"buffer":0,
			"byteLength":2304,
			"byteOffset":19456,
			"target":34962
		},
		{
			"buffer":0,
			"byteLength":960,
			"byteOffset":21760,
			"target":34963
		},
		{
			"buffer":0,
			"byteLength":144,
			"byteOffset":22720,
			"target":34962
		},
		{
			"buffer":0,
			"byteLength":144,
			"byteOffset":22864,
			"target":34962
		},
		{
			"buffer":0,
			"byteLength":96,
			"byteOffset":23008,
			"target":34962
		},
		{
			"buffer":0,
			"byteLength":48,
			"byteOffset":23104,
			"target":34962
		},
		{
			"buffer":0,
			"byteLength":192,
			"byteOffset":23152,
			"target":34962
		},
		{
			"buffer":0,
			"byteLength":48,
			"byteOffset":23344,
			"target":34963
		},
		{
			"buffer":0,
			"byteLength":96,
			"byteOffset":23392,
			"target":34962
		},
		{
			"buffer":0,
			"byteLength":96,
			"byteOffset":23488,
			"target":34962
		},
		{
			"buffer":0,
			"byteLength":64,
			"byteOffset":23584,
			"target":34962
		},
		{
			"buffer":0,
			"byteLength":32,
			"byteOffset":23648,
			"target":34962
		},
		{
			"buffer":0,
			"byteLength":128,
			"byteOffset":23680,
			"target":34962
		},
		{
			"buffer":0,
			"byteLength":72,
			"byteOffset":23808,
			"target":34963
		},
		{
			"buffer":0,
			"byteLength":2176,
			"byteOffset":23880
		},
		{
			"buffer":0,
			"byteLength":1104,
			"byteOffset":26056,
			"target":34962
		},
		{
			"buffer":0,
			"byteLength":1104,
			"byteOffset":27160,
			"target":34962
		},
		{
			"buffer":0,
			"byteLength":736,
			"byteOffset":28264,
			"target":34962
		},
		{
			"buffer":0,
			"byteLength":368,
			"byteOffset":29000,
			"target":34962
		},
		{
			"buffer":0,
			"byteLength":1472,
			"byteOffset":29368,
			"target":34962
		},
		{
			"buffer":0,
			"byteLength":288,
			"byteOffset":30840,
			"target":34963
		},
		{
			"buffer":0,
			"byteLength":7392,
			"byteOffset":31128,
			"target":34962
		},
		{
			"buffer":0,
			"byteLength":7392,
			"byteOffset":38520,
			"target":34962
		},
		{
			"buffer":0,
			"byteLength":4928,
			"byteOffset":45912,
			"target":34962
		},
		{
			"buffer":0,
			"byteLength":2464,
			"byteOffset":50840,
			"target":34962
		},
		{
			"buffer":0,
			"byteLength":9856,
			"byteOffset":53304,
			"target":34962
		},
		{
			"buffer":0,
			"byteLength":2232,
			"byteOffset":63160,
			"target":34963
		},
		{
			"buffer":0,
			"byteLength":288,
			"byteOffset":65392,
			"target":34962
		},
		{
			"buffer":0,
			"byteLength":288,
			"byteOffset":65680,
			"target":34962
		},
		{
			"buffer":0,
			"byteLength":192,
			"byteOffset":65968,
			"target":34962
		},
		{
			"buffer":0,
			"byteLength":96,
			"byteOffset":66160,
			"target":34962
		},
		{
			"buffer":0,
			"byteLength":384,
			"byteOffset":66256,
			"target":34962
		},
		{
			"buffer":0,
			"byteLength":72,
			"byteOffset":66640,
			"target":34963
		},
		{
			"buffer":0,
			"byteLength":8,
			"byteOffset":66712
		},
		{
			"buffer":0,
			"byteLength":24,
			"byteOffset":66720
		},
		{
			"buffer":0,
			"byteLength":32,
			"byteOffset":66744
		},
		{
			"buffer":0,
			"byteLength":24,
			"byteOffset":66776
		},
		{
			"buffer":0,
			"byteLength":24,
			"byteOffset":66800
		},
		{
			"buffer":0,
			"byteLength":32,
			"byteOffset":66824
		},
		{
			"buffer":0,
			"byteLength":24,
			"byteOffset":66856
		},
		{
			"buffer":0,
			"byteLength":76,
			"byteOffset":66880
		},
		{
			"buffer":0,
			"byteLength":228,
			"byteOffset":66956
		},
		{
			"buffer":0,
			"byteLength":32,
			"byteOffset":67184
		},
		{
			"buffer":0,
			"byteLength":24,
			"byteOffset":67216
		},
		{
			"buffer":0,
			"byteLength":24,
			"byteOffset":67240
		},
		{
			"buffer":0,
			"byteLength":32,
			"byteOffset":67264
		},
		{
			"buffer":0,
			"byteLength":24,
			"byteOffset":67296
		},
		{
			"buffer":0,
			"byteLength":24,
			"byteOffset":67320
		},
		{
			"buffer":0,
			"byteLength":32,
			"byteOffset":67344
		},
		{
			"buffer":0,
			"byteLength":24,
			"byteOffset":67376
		},
		{
			"buffer":0,
			"byteLength":24,
			"byteOffset":67400
		},
		{
			"buffer":0,
			"byteLength":32,
			"byteOffset":67424
		},
		{
			"buffer":0,
			"byteLength":24,
			"byteOffset":67456
		},
		{
			"buffer":0,
			"byteLength":24,
			"byteOffset":67480
		},
		{
			"buffer":0,
			"byteLength":32,
			"byteOffset":67504
		},
		{
			"buffer":0,
			"byteLength":228,
			"byteOffset":67536
		},
		{
			"buffer":0,
			"byteLength":304,
			"byteOffset":67764
		},
		{
			"buffer":0,
			"byteLength":24,
			"byteOffset":68068
		},
		{
			"buffer":0,
			"byteLength":228,
			"byteOffset":68092
		},
		{
			"buffer":0,
			"byteLength":32,
			"byteOffset":68320
		},
		{
			"buffer":0,
			"byteLength":24,
			"byteOffset":68352
		},
		{
			"buffer":0,
			"byteLength":228,
			"byteOffset":68376
		},
		{
			"buffer":0,
			"byteLength":304,
			"byteOffset":68604
		},
		{
			"buffer":0,
			"byteLength":24,
			"byteOffset":68908
		},
		{
			"buffer":0,
			"byteLength":24,
			"byteOffset":68932
		},
		{
			"buffer":0,
			"byteLength":32,
			"byteOffset":68956
		},
		{
			"buffer":0,
			"byteLength":24,
			"byteOffset":68988
		},
		{
			"buffer":0,
			"byteLength":228,
			"byteOffset":69012
		},
		{
			"buffer":0,
			"byteLength":304,
			"byteOffset":69240
		},
		{
			"buffer":0,
			"byteLength":24,
			"byteOffset":69544
		},
		{
			"buffer":0,
			"byteLength":24,
			"byteOffset":69568
		},
		{
			"buffer":0,
			"byteLength":32,
			"byteOffset":69592
		},
		{
			"buffer":0,
			"byteLength":24,
			"byteOffset":69624
		},
		{
			"buffer":0,
			"byteLength":228,
			"byteOffset":69648
		},
		{
			"buffer":0,
			"byteLength":304,
			"byteOffset":69876
		},
		{
			"buffer":0,
			"byteLength":24,
			"byteOffset":70180
		},
		{
			"buffer":0,
			"byteLength":304,
			"byteOffset":70204
		},
		{
			"buffer":0,
			"byteLength":24,
			"byteOffset":70508
		},
		{
			"buffer":0,
			"byteLength":24,
			"byteOffset":70532
		},
		{
			"buffer":0,
			"byteLength":304,
			"byteOffset":70556
		},
		{
			"buffer":0,
			"byteLength":24,
			"byteOffset":70860
		},
		{
			"buffer":0,
			"byteLength":24,
			"byteOffset":70884
		},
		{
			"buffer":0,
			"byteLength":304,
			"byteOffset":70908
		},
		{
			"buffer":0,
			"byteLength":24,
			"byteOffset":71212
		},
		{
			"buffer":0,
			"byteLength":24,
			"byteOffset":71236
		},
		{
			"buffer":0,
			"byteLength":304,
			"byteOffset":71260
		},
		{
			"buffer":0,
			"byteLength":24,
			"byteOffset":71564
		},
		{
			"buffer":0,
			"byteLength":24,
			"byteOffset":71588
		},
		{
			"buffer":0,
			"byteLength":304,
			"byteOffset":71612
		},
		{
			"buffer":0,
			"byteLength":24,
			"byteOffset":71916
		},
		{
			"buffer":0,
			"byteLength":24,
			"byteOffset":71940
		},
		{
			"buffer":0,
			"byteLength":304,
			"byteOffset":71964
		},
		{
			"buffer":0,
			"byteLength":24,
			"byteOffset":72268
		},
		{
			"buffer":0,
			"byteLength":24,
			"byteOffset":72292
		},
		{
			"buffer":0,
			"byteLength":304,
			"byteOffset":72316
		},
		{
			"buffer":0,
			"byteLength":24,
			"byteOffset":72620
		},
		{
			"buffer":0,
			"byteLength":24,
			"byteOffset":72644
		},
		{
			"buffer":0,
			"byteLength":304,
			"byteOffset":72668
		},
		{
			"buffer":0,
			"byteLength":24,
			"byteOffset":72972
		},
		{
			"buffer":0,
			"byteLength":24,
			"byteOffset":72996
		},
		{
			"buffer":0,
			"byteLength":304,
			"byteOffset":73020
		},
		{
			"buffer":0,
			"byteLength":24,
			"byteOffset":73324
		},
		{
			"buffer":0,
			"byteLength":24,
			"byteOffset":73348
		},
		{
			"buffer":0,
			"byteLength":304,
			"byteOffset":73372
		},
		{
			"buffer":0,
			"byteLength":24,
			"byteOffset":73676
		},
		{
			"buffer":0,
			"byteLength":24,
			"byteOffset":73700
		},
		{
			"buffer":0,
			"byteLength":304,
			"byteOffset":73724
		},
		{
			"buffer":0,
			"byteLength":24,
			"byteOffset":74028
		},
		{
			"buffer":0,
			"byteLength":24,
			"byteOffset":74052
		},
		{
			"buffer":0,
			"byteLength":304,
			"byteOffset":74076
		},
		{
			"buffer":0,
			"byteLength":24,
			"byteOffset":74380
		},
		{
			"buffer":0,
			"byteLength":24,
			"byteOffset":74404
		},
		{
			"buffer":0,
			"byteLength":304,
			"byteOffset":74428
		},
		{
			"buffer":0,
			"byteLength":24,
			"byteOffset":74732
		},
		{
			"buffer":0,
			"byteLength":24,
			"byteOffset":74756
		},
		{
			"buffer":0,
			"byteLength":304,
			"byteOffset":74780
		},
		{
			"buffer":0,
			"byteLength":24,
			"byteOffset":75084
		},
		{
			"buffer":0,
			"byteLength":24,
			"byteOffset":75108
		},
		{
			"buffer":0,
			"byteLength":304,
			"byteOffset":75132
		},
		{
			"buffer":0,
			"byteLength":24,
			"byteOffset":75436
		},
		{
			"buffer":0,
			"byteLength":24,
			"byteOffset":75460
		},
		{
			"buffer":0,
			"byteLength":304,
			"byteOffset":75484
		},
		{
			"buffer":0,
			"byteLength":24,
			"byteOffset":75788
		},
		{
			"buffer":0,
			"byteLength":24,
			"byteOffset":75812
		},
		{
			"buffer":0,
			"byteLength":304,
			"byteOffset":75836
		},
		{
			"buffer":0,
			"byteLength":24,
			"byteOffset":76140
		},
		{
			"buffer":0,
			"byteLength":24,
			"byteOffset":76164
		},
		{
			"buffer":0,
			"byteLength":304,
			"byteOffset":76188
		},
		{
			"buffer":0,
			"byteLength":24,
			"byteOffset":76492
		},
		{
			"buffer":0,
			"byteLength":24,
			"byteOffset":76516
		},
		{
			"buffer":0,
			"byteLength":304,
			"byteOffset":76540
		},
		{
			"buffer":0,
			"byteLength":24,
			"byteOffset":76844
		},
		{
			"buffer":0,
			"byteLength":228,
			"byteOffset":76868
		},
		{
			"buffer":0,
			"byteLength":32,
			"byteOffset":77096
		},
		{
			"buffer":0,
			"byteLength":228,
			"byteOffset":77128
		},
		{
			"buffer":0,
			"byteLength":24,
			"byteOffset":77356
		},
		{
			"buffer":0,
			"byteLength":32,
			"byteOffset":77380
		},
		{
			"buffer":0,
			"byteLength":24,
			"byteOffset":77412
		},
		{
			"buffer":0,
			"byteLength":24,
			"byteOffset":77436
		},
		{
			"buffer":0,
			"byteLength":32,
			"byteOffset":77460
		},
		{
			"buffer":0,
			"byteLength":24,
			"byteOffset":77492
		},
		{
			"buffer":0,
			"byteLength":304,
			"byteOffset":77516
		},
		{
			"buffer":0,
			"byteLength":24,
			"byteOffset":77820
		},
		{
			"buffer":0,
			"byteLength":228,
			"byteOffset":77844
		},
		{
			"buffer":0,
			"byteLength":32,
			"byteOffset":78072
		},
		{
			"buffer":0,
			"byteLength":24,
			"byteOffset":78104
		},
		{
			"buffer":0,
			"byteLength":304,
			"byteOffset":78128
		},
		{
			"buffer":0,
			"byteLength":24,
			"byteOffset":78432
		},
		{
			"buffer":0,
			"byteLength":24,
			"byteOffset":78456
		},
		{
			"buffer":0,
			"byteLength":32,
			"byteOffset":78480
		},
		{
			"buffer":0,
			"byteLength":24,
			"byteOffset":78512
		},
		{
			"buffer":0,
			"byteLength":304,
			"byteOffset":78536
		},
		{
			"buffer":0,
			"byteLength":24,
			"byteOffset":78840
		},
		{
			"buffer":0,
			"byteLength":24,
			"byteOffset":78864
		},
		{
			"buffer":0,
			"byteLength":32,
			"byteOffset":78888
		},
		{
			"buffer":0,
			"byteLength":24,
			"byteOffset":78920
		},
		{
			"buffer":0,
			"byteLength":304,
			"byteOffset":78944
		},
		{
			"buffer":0,
			"byteLength":24,
			"byteOffset":79248
		},
		{
			"buffer":0,
			"byteLength":24,
			"byteOffset":79272
		},
		{
			"buffer":0,
			"byteLength":304,
			"byteOffset":79296
		},
		{
			"buffer":0,
			"byteLength":24,
			"byteOffset":79600
		},
		{
			"buffer":0,
			"byteLength":24,
			"byteOffset":79624
		},
		{
			"buffer":0,
			"byteLength":304,
			"byteOffset":79648
		},
		{
			"buffer":0,
			"byteLength":24,
			"byteOffset":79952
		},
		{
			"buffer":0,
			"byteLength":24,
			"byteOffset":79976
		},
		{
			"buffer":0,
			"byteLength":304,
			"byteOffset":80000
		},
		{
			"buffer":0,
			"byteLength":24,
			"byteOffset":80304
		},
		{
			"buffer":0,
			"byteLength":24,
			"byteOffset":80328
		},
		{
			"buffer":0,
			"byteLength":304,
			"byteOffset":80352
		},
		{
			"buffer":0,
			"byteLength":24,
			"byteOffset":80656
		},
		{
			"buffer":0,
			"byteLength":24,
			"byteOffset":80680
		},
		{
			"buffer":0,
			"byteLength":304,
			"byteOffset":80704
		},
		{
			"buffer":0,
			"byteLength":24,
			"byteOffset":81008
		},
		{
			"buffer":0,
			"byteLength":24,
			"byteOffset":81032
		},
		{
			"buffer":0,
			"byteLength":304,
			"byteOffset":81056
		},
		{
			"buffer":0,
			"byteLength":24,
			"byteOffset":81360
		},
		{
			"buffer":0,
			"byteLength":24,
			"byteOffset":81384
		},
		{
			"buffer":0,
			"byteLength":304,
			"byteOffset":81408
		},
		{
			"buffer":0,
			"byteLength":24,
			"byteOffset":81712
		},
		{
			"buffer":0,
			"byteLength":24,
			"byteOffset":81736
		},
		{
			"buffer":0,
			"byteLength":304,
			"byteOffset":81760
		},
		{
			"buffer":0,
			"byteLength":24,
			"byteOffset":82064
		},
		{
			"buffer":0,
			"byteLength":24,
			"byteOffset":82088
		},
		{
			"buffer":0,
			"byteLength":304,
			"byteOffset":82112
		},
		{
			"buffer":0,
			"byteLength":24,
			"byteOffset":82416
		},
		{
			"buffer":0,
			"byteLength":24,
			"byteOffset":82440
		},
		{
			"buffer":0,
			"byteLength":304,
			"byteOffset":82464
		},
		{
			"buffer":0,
			"byteLength":24,
			"byteOffset":82768
		},
		{
			"buffer":0,
			"byteLength":24,
			"byteOffset":82792
		},
		{
			"buffer":0,
			"byteLength":304,
			"byteOffset":82816
		},
		{
			"buffer":0,
			"byteLength":24,
			"byteOffset":83120
		},
		{
			"buffer":0,
			"byteLength":304,
			"byteOffset":83144
		},
		{
			"buffer":0,
			"byteLength":24,
			"byteOffset":83448
		},
		{
			"buffer":0,
			"byteLength":24,
			"byteOffset":83472
		},
		{
			"buffer":0,
			"byteLength":304,
			"byteOffset":83496
		},
		{
			"buffer":0,
			"byteLength":24,
			"byteOffset":83800
		},
		{
			"buffer":0,
			"byteLength":24,
			"byteOffset":83824
		},
		{
			"buffer":0,
			"byteLength":304,
			"byteOffset":83848
		},
		{
			"buffer":0,
			"byteLength":24,
			"byteOffset":84152
		},
		{
			"buffer":0,
			"byteLength":24,
			"byteOffset":84176
		},
		{
			"buffer":0,
			"byteLength":304,
			"byteOffset":84200
		},
		{
			"buffer":0,
			"byteLength":24,
			"byteOffset":84504
		},
		{
			"buffer":0,
			"byteLength":24,
			"byteOffset":84528
		},
		{
			"buffer":0,
			"byteLength":304,
			"byteOffset":84552
		},
		{
			"buffer":0,
			"byteLength":24,
			"byteOffset":84856
		},
		{
			"buffer":0,
			"byteLength":24,
			"byteOffset":84880
		},
		{
			"buffer":0,
			"byteLength":304,
			"byteOffset":84904
		},
		{
			"buffer":0,
			"byteLength":24,
			"byteOffset":85208
		},
		{
			"buffer":0,
			"byteLength":24,
			"byteOffset":85232
		},
		{
			"buffer":0,
			"byteLength":304,
			"byteOffset":85256
		},
		{
			"buffer":0,
			"byteLength":24,
			"byteOffset":85560
		},
		{
			"buffer":0,
			"byteLength":304,
			"byteOffset":85584
		},
		{
			"buffer":0,
			"byteLength":24,
			"byteOffset":85888
		},
		{
			"buffer":0,
			"byteLength":228,
			"byteOffset":85912
		},
		{
			"buffer":0,
			"byteLength":32,
			"byteOffset":86140
		},
		{
			"buffer":0,
			"byteLength":228,
			"byteOffset":86172
		}
	],
	"buffers":[
		{
			"byteLength":86400,
			"uri":"Main.bin"
		}
	]
}
